<svg width="48" height="48" viewBox="0 0 48 48" fill="none" xmlns="http://www.w3.org/2000/svg">
<g clip-path="url(#clip0_2_3)">
<path d="M37.2238 46.1116L47.5537 25.8885C47.8461 25.314 48 24.6629 48 24.0001C48 23.3374 47.8461 22.6862 47.5537 22.1118L37.2237 1.88836C36.9296 1.31497 36.5077 0.838811 35.9999 0.507445C35.4921 0.176079 34.9163 0.0011044 34.3299 0L13.67 0C13.0837 0.00109252 12.5078 0.17606 12.0001 0.507427C11.4923 0.838794 11.0703 1.31496 10.7763 1.88836L0.446276 22.1116C0.153885 22.6861 0 23.3372 0 24C0 24.6627 0.153885 25.3139 0.446276 25.8884L10.7763 46.1116C11.0703 46.6851 11.4922 47.1612 12 47.4926C12.5078 47.824 13.0837 47.9989 13.67 48H34.33C34.9164 47.9989 35.4922 47.824 36 47.4926C36.5078 47.1612 36.9298 46.6851 37.2238 46.1116ZM4.30464 22.1118L13.67 3.77684H32.1915L23.0229 22.1118H4.30464ZM25.9137 24.0061L35.189 5.4583L44.6597 23.9996L35.1858 42.5478L25.9137 24.0061ZM13.67 44.2233L4.30464 25.8885H23.0164L32.1854 44.2233H13.67Z" fill="black"/>
</g>
<defs>
<clipPath id="clip0_2_3">
<rect width="48" height="48" fill="white"/>
</clipPath>
</defs>
</svg>
